<svg width="24" height="22" viewBox="0 0 24 22" fill="none" xmlns="http://www.w3.org/2000/svg">
<path d="M17.3698 12.3903L11.9998 16.7103L6.63978 12.2303C6.53867 12.1462 6.42198 12.0829 6.2964 12.044C6.17082 12.005 6.03879 11.9912 5.90786 12.0033C5.77693 12.0153 5.64966 12.0531 5.53331 12.1143C5.41697 12.1756 5.31383 12.2592 5.22978 12.3603C5.14574 12.4614 5.08243 12.5781 5.04348 12.7037C5.00453 12.8292 4.99069 12.9613 5.00276 13.0922C5.01484 13.2231 5.05258 13.3504 5.11384 13.4667C5.17509 13.5831 5.25867 13.6862 5.35978 13.7703L11.3598 18.7703C11.5387 18.9174 11.7632 18.9978 11.9948 18.9978C12.2264 18.9978 12.4509 18.9174 12.6298 18.7703L18.6298 13.9403C18.7325 13.8577 18.8179 13.7557 18.8811 13.6401C18.9443 13.5245 18.984 13.3975 18.9979 13.2665C19.0118 13.1354 18.9997 13.0029 18.9623 12.8766C18.9249 12.7503 18.8629 12.6326 18.7798 12.5303C18.6965 12.4283 18.594 12.3437 18.478 12.2815C18.362 12.2192 18.2349 12.1805 18.1039 12.1675C17.9729 12.1544 17.8406 12.1674 17.7146 12.2057C17.5886 12.2439 17.4715 12.3066 17.3698 12.3903Z" fill="#6A3400"/>
<path d="M11.3598 11.7703C11.5387 11.9174 11.7632 11.9978 11.9948 11.9978C12.2264 11.9978 12.4509 11.9174 12.6298 11.7703L18.6298 6.94028C18.7325 6.85775 18.8179 6.75574 18.8811 6.64011C18.9443 6.52447 18.984 6.39749 18.9979 6.26646C19.0118 6.13543 18.9997 6.00294 18.9623 5.8766C18.9249 5.75026 18.8629 5.63256 18.7798 5.53028C18.6973 5.42755 18.5953 5.34214 18.4796 5.27897C18.364 5.2158 18.237 5.1761 18.106 5.16216C17.9749 5.14822 17.8425 5.16031 17.7161 5.19775C17.5898 5.23518 17.4721 5.29721 17.3698 5.38028L11.9998 9.71028L6.63979 5.23028C6.43557 5.06054 6.17229 4.97888 5.90786 5.00325C5.64344 5.02763 5.39953 5.15606 5.22979 5.36028C5.06005 5.56449 4.97839 5.82777 5.00277 6.0922C5.02715 6.35663 5.15557 6.60054 5.35979 6.77028L11.3598 11.7703Z" fill="#6A3400"/>
</svg>
